# xmcd
#
# Track frame offsets:
#	187
#	2287
#	14527
#	24617
#	34975
#	41637
#	54332
#	68580
#	82645
#	94362
#	105947
#	116440
#	126970
#	141570
#
# Disc length: 2022 seconds
#
# Revision: 1
# Processed by: cddbd v1.4PL0 Copyright (c) Steve Scherf et al.
# Submitted via: audiograbber 1.80.04
#
DISCID=ab07e40e
DTITLE=Charlie Pride - In Person
DYEAR=1900
DGENRE=Country
TTITLE0=Introlskdduction
TTITLE1=The Last Thing On My Mind
TTITLE2=Just Betweem You And Me
TTITLE3=I Know One
TTITLE4=Dialog
TTITLE5=Lovesick Blues
TTITLE6=The Image Of Me
TTITLE7=Kaw-Liga
TTITLE8=Shuttets And  Boards
TTITLE9=Six Days On Road
TTITLE10=Streets Of Baltimore
TTITLE11=Got Leavim' On  Her Mind
TTITLE12=Crystal Chandeliers
TTITLE13=Cotton Fields
EXTD=
EXTT0=
EXTT1=
EXTT2=
EXTT3=
EXTT4=
EXTT5=
EXTT6=
EXTT7=
EXTT8=
EXTT9=
EXTT10=
EXTT11=
EXTT12=
EXTT13=
PLAYORDER=
